
<svg xmlns="http://www.w3.org/2000/svg" xmlns:xlink="http://www.w3.org/1999/xlink" width="250" zoomAndPan="magnify" viewBox="0 0 187.5 37.5" height="50" preserveAspectRatio="xMidYMid meet" version="1.0"><defs><g/><clipPath id="fc868e3629"><path d="M 0.988281 0 L 186.019531 0 L 186.019531 37.007812 L 0.988281 37.007812 Z M 0.988281 0 " clip-rule="nonzero"/></clipPath><clipPath id="f7c7bfc6b9"><path d="M 47.878906 12.230469 L 62.203125 12.230469 L 62.203125 30.839844 L 47.878906 30.839844 Z M 47.878906 12.230469 " clip-rule="nonzero"/></clipPath><clipPath id="2e806828b7"><path d="M 56.203125 22.769531 C 53.984375 23.210938 52.027344 21.523438 52.027344 19.375 C 52.027344 17.464844 53.578125 15.914062 55.488281 15.914062 C 57.621094 15.914062 59.304688 17.84375 58.882812 20.054688 C 58.628906 21.40625 57.546875 22.496094 56.199219 22.769531 M 55.628906 12.335938 C 54.578125 12.335938 53.441406 12.628906 52.5 13.234375 C 52.03125 13.539062 51.417969 13.21875 51.417969 12.660156 L 47.898438 12.664062 L 47.902344 30.820312 L 51.421875 30.816406 L 51.421875 26.949219 C 51.421875 25.933594 52.445312 25.25 53.390625 25.621094 C 54.199219 25.9375 55.0625 26.070312 55.820312 26.070312 C 59.117188 26.070312 62.195312 23.695312 62.195312 19.230469 C 62.195312 14.792969 58.917969 12.328125 55.625 12.332031 " clip-rule="nonzero"/></clipPath><clipPath id="65e96a9730"><path d="M 63.773438 12.335938 L 72.347656 12.335938 L 72.347656 26.136719 L 63.773438 26.136719 Z M 63.773438 12.335938 " clip-rule="nonzero"/></clipPath><clipPath id="3dc163ebd6"><path d="M 69.324219 13.320312 C 68.8125 13.652344 68.136719 13.300781 68.136719 12.6875 L 68.136719 12.675781 L 63.867188 12.675781 L 63.863281 26.070312 L 68.136719 26.074219 L 68.136719 18.824219 C 68.136719 17.777344 68.824219 16.855469 69.824219 16.554688 C 70.304688 16.414062 70.820312 16.332031 71.269531 16.332031 C 71.714844 16.332031 72.074219 16.390625 72.324219 16.476562 L 72.324219 12.34375 C 71.277344 12.339844 70.199219 12.742188 69.324219 13.320312 " clip-rule="nonzero"/></clipPath><clipPath id="c74fbdd9c7"><path d="M 88.761719 12.335938 L 103.714844 12.335938 L 103.714844 26.136719 L 88.761719 26.136719 Z M 88.761719 12.335938 " clip-rule="nonzero"/></clipPath><clipPath id="77844b7611"><path d="M 99.394531 19.671875 C 99.132812 19.296875 99.132812 18.792969 99.386719 18.402344 L 103.339844 12.359375 L 98.535156 12.363281 L 97.183594 14.53125 C 96.726562 15.257812 95.683594 15.261719 95.230469 14.539062 L 93.847656 12.367188 L 89.046875 12.371094 L 93.035156 18.410156 C 93.289062 18.796875 93.289062 19.300781 93.03125 19.679688 L 88.773438 26.097656 L 93.546875 26.097656 L 95.242188 23.460938 C 95.695312 22.753906 96.734375 22.753906 97.183594 23.460938 L 98.859375 26.09375 L 103.660156 26.082031 Z M 99.394531 19.671875 " clip-rule="nonzero"/></clipPath><clipPath id="e62196d8ec"><path d="M 105.175781 6.164062 L 109.777344 6.164062 L 109.777344 10.660156 L 105.175781 10.660156 Z M 105.175781 6.164062 " clip-rule="nonzero"/></clipPath><clipPath id="83e83a7eb9"><path d="M 109.707031 8.398438 C 109.703125 9.628906 108.722656 10.613281 107.492188 10.613281 C 106.28125 10.609375 105.28125 9.605469 105.28125 8.394531 C 105.28125 7.167969 106.257812 6.183594 107.488281 6.183594 C 108.699219 6.183594 109.703125 7.1875 109.707031 8.398438 " clip-rule="nonzero"/></clipPath><clipPath id="3dc33fc05f"><path d="M 105.175781 13.796875 L 105.28125 13.796875 L 105.28125 26.136719 L 105.175781 26.136719 Z M 105.175781 13.796875 " clip-rule="nonzero"/></clipPath><clipPath id="980e3d38a1"><path d="M 105.273438 13.878906 L 105.277344 26.097656 L 105.273438 26.097656 Z M 105.273438 13.878906 " clip-rule="nonzero"/></clipPath><clipPath id="b1e820bfe3"><path d="M 111.242188 12.335938 L 132.46875 12.335938 L 132.46875 26.136719 L 111.242188 26.136719 Z M 111.242188 12.335938 " clip-rule="nonzero"/></clipPath><clipPath id="c1e502348a"><path d="M 128.347656 12.371094 C 126.945312 12.375 125.699219 12.917969 124.800781 13.621094 C 124.242188 14.0625 123.4375 13.96875 122.9375 13.457031 C 122.242188 12.738281 121.21875 12.375 119.929688 12.375 C 118.636719 12.375 117.5 12.820312 116.671875 13.34375 C 116.546875 13.417969 116.410156 13.460938 116.277344 13.460938 C 115.886719 13.460938 115.523438 13.148438 115.523438 12.707031 L 111.261719 12.707031 L 111.261719 26.085938 L 115.527344 26.085938 L 115.523438 18.589844 C 115.523438 17.324219 116.476562 16.230469 117.738281 16.148438 C 117.792969 16.144531 117.847656 16.144531 117.910156 16.144531 C 119.207031 16.144531 119.679688 16.917969 119.679688 17.941406 L 119.679688 26.085938 L 123.945312 26.085938 L 123.941406 18.609375 C 123.941406 17.335938 124.90625 16.230469 126.179688 16.148438 C 126.238281 16.144531 126.292969 16.140625 126.351562 16.140625 C 127.625 16.140625 128.125 16.917969 128.125 17.941406 L 128.125 26.085938 L 132.363281 26.082031 L 132.363281 16.386719 C 132.363281 13.648438 130.808594 12.371094 128.34375 12.371094 " clip-rule="nonzero"/></clipPath><clipPath id="edf43029cc"><path d="M 74.125 12.230469 L 88 12.230469 L 88 26.136719 L 74.125 26.136719 Z M 74.125 12.230469 " clip-rule="nonzero"/></clipPath><clipPath id="e390aedba9"><path d="M 81.679688 22.636719 C 79.308594 23.023438 77.292969 21 77.683594 18.632812 C 77.917969 17.199219 79.074219 16.046875 80.507812 15.808594 C 82.871094 15.414062 84.898438 17.429688 84.507812 19.800781 C 84.277344 21.238281 83.117188 22.398438 81.679688 22.632812 M 80.199219 12.394531 C 77.132812 12.78125 74.65625 15.257812 74.269531 18.320312 C 73.699219 22.820312 77.484375 26.605469 81.988281 26.042969 C 85.058594 25.65625 87.535156 23.179688 87.917969 20.109375 C 88.484375 15.605469 84.699219 11.824219 80.199219 12.390625 " clip-rule="nonzero"/></clipPath><clipPath id="6eb8cc9f38"><path d="M 133.929688 12.4375 L 147.835938 12.4375 L 147.835938 26.136719 L 133.929688 26.136719 Z M 133.929688 12.4375 " clip-rule="nonzero"/></clipPath><clipPath id="6d2bc419a4"><path d="M 140.648438 22.730469 C 138.765625 22.714844 137.253906 21.277344 137.265625 19.222656 C 137.277344 17.148438 138.800781 15.816406 140.679688 15.828125 C 142.355469 15.832031 144.140625 17.023438 144.125 19.265625 C 144.117188 21.472656 142.5 22.742188 140.648438 22.730469 M 145.910156 12.714844 C 145.539062 12.714844 145.242188 13.011719 145.242188 13.382812 L 145.242188 13.929688 C 145.242188 14.167969 144.945312 14.277344 144.78125 14.101562 C 143.8125 13.019531 142.203125 12.464844 140.65625 12.453125 C 137.070312 12.433594 134.003906 15.054688 133.976562 19.226562 C 133.957031 23.375 137 26.082031 140.582031 26.097656 C 142.113281 26.113281 143.703125 25.546875 144.695312 24.480469 C 144.875 24.292969 145.1875 24.414062 145.1875 24.675781 L 145.1875 25.226562 C 145.1875 25.582031 145.476562 25.871094 145.832031 25.871094 L 147.734375 25.871094 L 147.734375 24.65625 L 147.792969 13.929688 L 147.792969 12.714844 Z M 145.910156 12.714844 " clip-rule="nonzero"/></clipPath><clipPath id="c4e9bc257f"><path d="M 105.175781 12.335938 L 109.671875 12.335938 L 109.671875 26.136719 L 105.175781 26.136719 Z M 105.175781 12.335938 " clip-rule="nonzero"/></clipPath><clipPath id="b87e58d2d9"><path d="M 109.648438 12.371094 L 109.648438 26.097656 L 105.277344 26.097656 L 105.277344 13.207031 C 105.277344 12.730469 105.667969 12.34375 106.144531 12.347656 Z M 109.648438 12.371094 " clip-rule="nonzero"/></clipPath><clipPath id="831ba8f0f6"><path d="M 5.707031 3.359375 L 38.472656 3.359375 L 38.472656 36.125 L 5.707031 36.125 Z M 5.707031 3.359375 " clip-rule="nonzero"/></clipPath><clipPath id="f3f656248f"><path d="M 36.828125 12.464844 C 42.101562 24.46875 33.445312 36.082031 22.078125 36.082031 C 21.242188 36.082031 20.414062 36.015625 19.609375 35.894531 C 19.378906 35.863281 19.15625 35.824219 18.929688 35.777344 C 18.933594 33.457031 18.941406 31.402344 18.953125 30.210938 C 18.976562 28.066406 20.671875 26.269531 22.816406 26.203125 C 24.25 26.164062 25.675781 25.738281 27.175781 24.511719 C 27.410156 24.324219 27.621094 24.117188 27.808594 23.898438 C 29.019531 22.617188 29.757812 20.886719 29.757812 18.980469 C 29.757812 18.808594 29.753906 18.636719 29.738281 18.46875 C 29.707031 17.964844 29.617188 17.472656 29.484375 17 C 28.683594 14.207031 26.226562 12.109375 23.242188 11.839844 C 23.027344 11.820312 22.808594 11.808594 22.589844 11.808594 C 22.003906 11.808594 21.4375 11.882812 20.894531 12.015625 C 20.804688 12.039062 20.714844 12.058594 20.625 12.082031 C 20.621094 12.085938 20.621094 12.085938 20.617188 12.085938 C 19.445312 12.398438 18.347656 13.019531 17.433594 13.945312 C 16.195312 15.21875 15.527344 16.832031 15.429688 18.472656 C 15.421875 18.582031 15.417969 18.691406 15.417969 18.800781 C 15.414062 18.863281 15.414062 18.921875 15.414062 18.984375 C 15.414062 19.046875 15.414062 19.109375 15.417969 19.171875 L 15.414062 34.664062 C 9.722656 32.113281 5.75 26.394531 5.75 19.75 C 5.75 8.386719 17.363281 -0.265625 29.367188 5.003906 C 32.695312 6.46875 35.367188 9.136719 36.828125 12.464844 " clip-rule="nonzero"/></clipPath><clipPath id="5857c976a8"><path d="M 27.113281 0.882812 L 41.53125 0.882812 L 41.53125 15.300781 L 27.113281 15.300781 Z M 27.113281 0.882812 " clip-rule="nonzero"/></clipPath><clipPath id="04d47f2d5d"><path d="M 34.269531 0.925781 C 30.320312 0.9375 27.117188 4.144531 27.117188 8.097656 C 27.117188 11.238281 29.136719 13.90625 31.945312 14.875 C 32.351562 15.015625 32.769531 15.121094 33.199219 15.1875 C 33.554688 15.242188 33.917969 15.269531 34.285156 15.269531 C 38.234375 15.269531 41.4375 12.078125 41.457031 8.132812 L 41.457031 8.0625 C 41.457031 7.921875 41.449219 7.78125 41.441406 7.640625 C 41.222656 4.070312 38.3125 1.164062 34.746094 0.941406 C 34.597656 0.933594 34.449219 0.925781 34.304688 0.925781 Z M 34.269531 0.925781 " clip-rule="nonzero"/></clipPath><clipPath id="ec91311383"><path d="M 80.238281 6.183594 L 86.546875 6.183594 L 86.546875 10.207031 L 80.238281 10.207031 Z M 80.238281 6.183594 " clip-rule="nonzero"/></clipPath><clipPath id="adf1bf0d55"><path d="M 83.140625 6.210938 C 82.921875 6.210938 82.710938 6.304688 82.566406 6.472656 L 80.445312 8.914062 C 80.011719 9.414062 80.367188 10.195312 81.03125 10.191406 L 81.890625 10.183594 C 82.082031 10.179688 82.265625 10.109375 82.40625 9.980469 L 86.535156 6.183594 Z M 83.140625 6.210938 " clip-rule="nonzero"/></clipPath></defs><g clip-path="url(#fc868e3629)"><path fill="none" d="M 0.988281 0 L 186.019531 0 L 186.019531 37.007812 L 0.988281 37.007812 Z M 0.988281 0 " fill-opacity="1" fill-rule="nonzero"/></g><g clip-path="url(#f7c7bfc6b9)"><g clip-path="url(#2e806828b7)"><path fill="#ffffff" d="M 56.203125 22.769531 C 53.984375 23.210938 52.027344 21.523438 52.027344 19.375 C 52.027344 17.464844 53.578125 15.914062 55.488281 15.914062 C 57.621094 15.914062 59.304688 17.84375 58.882812 20.054688 C 58.628906 21.40625 57.546875 22.496094 56.199219 22.769531 M 55.628906 12.335938 C 54.578125 12.335938 53.441406 12.628906 52.5 13.234375 C 52.03125 13.539062 51.417969 13.21875 51.417969 12.660156 L 47.898438 12.664062 L 47.902344 30.820312 L 51.421875 30.816406 L 51.421875 26.949219 C 51.421875 25.933594 52.445312 25.25 53.390625 25.621094 C 54.199219 25.9375 55.0625 26.070312 55.820312 26.070312 C 59.117188 26.070312 62.195312 23.695312 62.195312 19.230469 C 62.195312 14.792969 58.917969 12.328125 55.625 12.332031" fill-opacity="1" fill-rule="nonzero"/></g></g><g clip-path="url(#65e96a9730)"><g clip-path="url(#3dc163ebd6)"><path fill="#ffffff" d="M 69.324219 13.320312 C 68.8125 13.652344 68.136719 13.300781 68.136719 12.6875 L 68.136719 12.675781 L 63.867188 12.675781 L 63.863281 26.070312 L 68.136719 26.074219 L 68.136719 18.824219 C 68.136719 17.777344 68.824219 16.855469 69.824219 16.554688 C 70.304688 16.414062 70.820312 16.332031 71.269531 16.332031 C 71.714844 16.332031 72.074219 16.390625 72.324219 16.476562 L 72.324219 12.34375 C 71.277344 12.339844 70.199219 12.742188 69.324219 13.320312" fill-opacity="1" fill-rule="nonzero"/></g></g><g clip-path="url(#c74fbdd9c7)"><g clip-path="url(#77844b7611)"><path fill="#ffffff" d="M 99.394531 19.671875 C 99.132812 19.296875 99.132812 18.792969 99.386719 18.402344 L 103.339844 12.359375 L 98.535156 12.363281 L 97.183594 14.53125 C 96.726562 15.257812 95.683594 15.261719 95.230469 14.539062 L 93.847656 12.367188 L 89.046875 12.371094 L 93.035156 18.410156 C 93.289062 18.796875 93.289062 19.300781 93.03125 19.679688 L 88.773438 26.097656 L 93.546875 26.097656 L 95.242188 23.460938 C 95.695312 22.753906 96.734375 22.753906 97.183594 23.460938 L 98.859375 26.09375 L 103.660156 26.082031 Z M 99.394531 19.671875" fill-opacity="1" fill-rule="nonzero"/></g></g><g clip-path="url(#e62196d8ec)"><g clip-path="url(#83e83a7eb9)"><path fill="#ffffff" d="M 109.707031 8.398438 C 109.703125 9.628906 108.722656 10.613281 107.492188 10.613281 C 106.28125 10.609375 105.28125 9.605469 105.28125 8.394531 C 105.28125 7.167969 106.257812 6.183594 107.488281 6.183594 C 108.699219 6.183594 109.703125 7.1875 109.707031 8.398438" fill-opacity="1" fill-rule="nonzero"/></g></g><g clip-path="url(#3dc33fc05f)"><g clip-path="url(#980e3d38a1)"><path fill="#ffffff" d="M 105.273438 13.878906 L 105.277344 26.097656 L 105.273438 26.097656 Z M 105.273438 13.878906" fill-opacity="1" fill-rule="nonzero"/></g></g><g clip-path="url(#b1e820bfe3)"><g clip-path="url(#c1e502348a)"><path fill="#ffffff" d="M 128.347656 12.371094 C 126.945312 12.375 125.699219 12.917969 124.800781 13.621094 C 124.242188 14.0625 123.4375 13.96875 122.9375 13.457031 C 122.242188 12.738281 121.21875 12.375 119.929688 12.375 C 118.636719 12.375 117.5 12.820312 116.671875 13.34375 C 116.546875 13.417969 116.410156 13.460938 116.277344 13.460938 C 115.886719 13.460938 115.523438 13.148438 115.523438 12.707031 L 111.261719 12.707031 L 111.261719 26.085938 L 115.527344 26.085938 L 115.523438 18.589844 C 115.523438 17.324219 116.476562 16.230469 117.738281 16.148438 C 117.792969 16.144531 117.847656 16.144531 117.910156 16.144531 C 119.207031 16.144531 119.679688 16.917969 119.679688 17.941406 L 119.679688 26.085938 L 123.945312 26.085938 L 123.941406 18.609375 C 123.941406 17.335938 124.90625 16.230469 126.179688 16.148438 C 126.238281 16.144531 126.292969 16.140625 126.351562 16.140625 C 127.625 16.140625 128.125 16.917969 128.125 17.941406 L 128.125 26.085938 L 132.363281 26.082031 L 132.363281 16.386719 C 132.363281 13.648438 130.808594 12.371094 128.34375 12.371094" fill-opacity="1" fill-rule="nonzero"/></g></g><g clip-path="url(#edf43029cc)"><g clip-path="url(#e390aedba9)"><path fill="#ffffff" d="M 81.679688 22.636719 C 79.308594 23.023438 77.292969 21 77.683594 18.632812 C 77.917969 17.199219 79.074219 16.046875 80.507812 15.808594 C 82.871094 15.414062 84.898438 17.429688 84.507812 19.800781 C 84.277344 21.238281 83.117188 22.398438 81.679688 22.632812 M 80.199219 12.394531 C 77.132812 12.78125 74.65625 15.257812 74.269531 18.320312 C 73.699219 22.820312 77.484375 26.605469 81.988281 26.042969 C 85.058594 25.65625 87.535156 23.179688 87.917969 20.109375 C 88.484375 15.605469 84.699219 11.824219 80.199219 12.390625" fill-opacity="1" fill-rule="nonzero"/></g></g><g clip-path="url(#6eb8cc9f38)"><g clip-path="url(#6d2bc419a4)"><path fill="#ffffff" d="M 140.648438 22.730469 C 138.765625 22.714844 137.253906 21.277344 137.265625 19.222656 C 137.277344 17.148438 138.800781 15.816406 140.679688 15.828125 C 142.355469 15.832031 144.140625 17.023438 144.125 19.265625 C 144.117188 21.472656 142.5 22.742188 140.648438 22.730469 M 145.910156 12.714844 C 145.539062 12.714844 145.242188 13.011719 145.242188 13.382812 L 145.242188 13.929688 C 145.242188 14.167969 144.945312 14.277344 144.78125 14.101562 C 143.8125 13.019531 142.203125 12.464844 140.65625 12.453125 C 137.070312 12.433594 134.003906 15.054688 133.976562 19.226562 C 133.957031 23.375 137 26.082031 140.582031 26.097656 C 142.113281 26.113281 143.703125 25.546875 144.695312 24.480469 C 144.875 24.292969 145.1875 24.414062 145.1875 24.675781 L 145.1875 25.226562 C 145.1875 25.582031 145.476562 25.871094 145.832031 25.871094 L 147.734375 25.871094 L 147.734375 24.65625 L 147.792969 13.929688 L 147.792969 12.714844 Z M 145.910156 12.714844" fill-opacity="1" fill-rule="nonzero"/></g></g><g clip-path="url(#c4e9bc257f)"><g clip-path="url(#b87e58d2d9)"><path fill="#ffffff" d="M 109.648438 12.371094 L 109.648438 26.097656 L 105.277344 26.097656 L 105.277344 13.207031 C 105.277344 12.730469 105.667969 12.34375 106.144531 12.347656 Z M 109.648438 12.371094" fill-opacity="1" fill-rule="nonzero"/></g></g><g clip-path="url(#831ba8f0f6)"><g clip-path="url(#f3f656248f)"><path fill="#ecc656" d="M 36.828125 12.464844 C 42.101562 24.46875 33.445312 36.082031 22.078125 36.082031 C 21.242188 36.082031 20.414062 36.015625 19.609375 35.894531 C 19.378906 35.863281 19.15625 35.824219 18.929688 35.777344 C 18.933594 33.457031 18.941406 31.402344 18.953125 30.210938 C 18.976562 28.066406 20.671875 26.269531 22.816406 26.203125 C 24.25 26.164062 25.675781 25.738281 27.175781 24.511719 C 27.410156 24.324219 27.621094 24.117188 27.808594 23.898438 C 29.019531 22.617188 29.757812 20.886719 29.757812 18.980469 C 29.757812 18.808594 29.753906 18.636719 29.738281 18.46875 C 29.707031 17.964844 29.617188 17.472656 29.484375 17 C 28.683594 14.207031 26.226562 12.109375 23.242188 11.839844 C 23.027344 11.820312 22.808594 11.808594 22.589844 11.808594 C 22.003906 11.808594 21.4375 11.882812 20.894531 12.015625 C 20.804688 12.039062 20.714844 12.058594 20.625 12.082031 C 20.621094 12.085938 20.621094 12.085938 20.617188 12.085938 C 19.445312 12.398438 18.347656 13.019531 17.433594 13.945312 C 16.195312 15.21875 15.527344 16.832031 15.429688 18.472656 C 15.421875 18.582031 15.417969 18.691406 15.417969 18.800781 C 15.414062 18.863281 15.414062 18.921875 15.414062 18.984375 C 15.414062 19.046875 15.414062 19.109375 15.417969 19.171875 L 15.414062 34.664062 C 9.722656 32.113281 5.75 26.394531 5.75 19.75 C 5.75 8.386719 17.363281 -0.265625 29.367188 5.003906 C 32.695312 6.46875 35.367188 9.136719 36.828125 12.464844" fill-opacity="1" fill-rule="nonzero"/></g></g><g clip-path="url(#5857c976a8)"><g clip-path="url(#04d47f2d5d)"><path fill="#d16c60" d="M 34.269531 0.925781 C 30.320312 0.9375 27.117188 4.144531 27.117188 8.097656 C 27.117188 11.238281 29.136719 13.90625 31.945312 14.875 C 32.351562 15.015625 32.769531 15.121094 33.199219 15.1875 C 33.554688 15.242188 33.917969 15.269531 34.285156 15.269531 C 38.234375 15.269531 41.4375 12.078125 41.457031 8.132812 L 41.457031 8.0625 C 41.457031 7.921875 41.449219 7.78125 41.441406 7.640625 C 41.222656 4.070312 38.3125 1.164062 34.746094 0.941406 C 34.597656 0.933594 34.449219 0.925781 34.304688 0.925781 Z M 34.269531 0.925781" fill-opacity="1" fill-rule="nonzero"/></g></g><g clip-path="url(#ec91311383)"><g clip-path="url(#adf1bf0d55)"><path fill="#ffffff" d="M 83.140625 6.210938 C 82.921875 6.210938 82.710938 6.304688 82.566406 6.472656 L 80.445312 8.914062 C 80.011719 9.414062 80.367188 10.195312 81.03125 10.191406 L 81.890625 10.183594 C 82.082031 10.179688 82.265625 10.109375 82.40625 9.980469 L 86.535156 6.183594 Z M 83.140625 6.210938" fill-opacity="1" fill-rule="nonzero"/></g></g><g fill="#ecc656" fill-opacity="1"><g transform="translate(150.560995, 25.166264)"><g><path d="M 6.28125 0 L 6.28125 -4.8125 C 6.28125 -5.414062 6.140625 -5.863281 5.859375 -6.15625 C 5.585938 -6.457031 5.160156 -6.609375 4.578125 -6.609375 C 3.796875 -6.609375 3.222656 -6.394531 2.859375 -5.96875 C 2.492188 -5.550781 2.3125 -4.863281 2.3125 -3.90625 L 2.3125 0 L 1.1875 0 L 1.1875 -7.4375 L 2.109375 -7.4375 L 2.296875 -6.421875 L 2.34375 -6.421875 C 2.570312 -6.785156 2.894531 -7.066406 3.3125 -7.265625 C 3.726562 -7.460938 4.191406 -7.5625 4.703125 -7.5625 C 5.597656 -7.5625 6.269531 -7.347656 6.71875 -6.921875 C 7.175781 -6.492188 7.40625 -5.800781 7.40625 -4.84375 L 7.40625 0 Z M 6.28125 0 "/></g></g></g><g fill="#ecc656" fill-opacity="1"><g transform="translate(159.056078, 25.166264)"><g><path d="M 7.609375 -3.71875 C 7.609375 -2.507812 7.300781 -1.5625 6.6875 -0.875 C 6.082031 -0.195312 5.242188 0.140625 4.171875 0.140625 C 3.503906 0.140625 2.910156 -0.015625 2.390625 -0.328125 C 1.878906 -0.640625 1.484375 -1.085938 1.203125 -1.671875 C 0.921875 -2.253906 0.78125 -2.9375 0.78125 -3.71875 C 0.78125 -4.9375 1.082031 -5.878906 1.6875 -6.546875 C 2.289062 -7.222656 3.132812 -7.5625 4.21875 -7.5625 C 5.25 -7.5625 6.070312 -7.21875 6.6875 -6.53125 C 7.300781 -5.84375 7.609375 -4.90625 7.609375 -3.71875 Z M 1.953125 -3.71875 C 1.953125 -2.769531 2.140625 -2.046875 2.515625 -1.546875 C 2.898438 -1.054688 3.457031 -0.8125 4.1875 -0.8125 C 4.925781 -0.8125 5.484375 -1.054688 5.859375 -1.546875 C 6.242188 -2.046875 6.4375 -2.769531 6.4375 -3.71875 C 6.4375 -4.664062 6.242188 -5.382812 5.859375 -5.875 C 5.484375 -6.363281 4.921875 -6.609375 4.171875 -6.609375 C 3.441406 -6.609375 2.890625 -6.363281 2.515625 -5.875 C 2.140625 -5.394531 1.953125 -4.675781 1.953125 -3.71875 Z M 1.953125 -3.71875 "/></g></g></g><g fill="#ecc656" fill-opacity="1"><g transform="translate(167.415554, 25.166264)"><g><path d="M 2.828125 0 L 0 -7.4375 L 1.203125 -7.4375 L 2.8125 -3.03125 C 3.164062 -2 3.378906 -1.328125 3.453125 -1.015625 L 3.5 -1.015625 C 3.550781 -1.253906 3.707031 -1.75 3.96875 -2.5 C 4.238281 -3.257812 4.832031 -4.90625 5.75 -7.4375 L 6.953125 -7.4375 L 4.140625 0 Z M 2.828125 0 "/></g></g></g><g fill="#ecc656" fill-opacity="1"><g transform="translate(174.344382, 25.166264)"><g><path d="M 5.765625 0 L 5.546875 -1.0625 L 5.484375 -1.0625 C 5.117188 -0.59375 4.75 -0.273438 4.375 -0.109375 C 4.007812 0.0546875 3.550781 0.140625 3 0.140625 C 2.257812 0.140625 1.679688 -0.046875 1.265625 -0.421875 C 0.847656 -0.804688 0.640625 -1.351562 0.640625 -2.0625 C 0.640625 -3.5625 1.835938 -4.347656 4.234375 -4.421875 L 5.5 -4.453125 L 5.5 -4.921875 C 5.5 -5.503906 5.375 -5.929688 5.125 -6.203125 C 4.875 -6.484375 4.472656 -6.625 3.921875 -6.625 C 3.296875 -6.625 2.59375 -6.4375 1.8125 -6.0625 L 1.46875 -6.921875 C 1.832031 -7.117188 2.234375 -7.273438 2.671875 -7.390625 C 3.109375 -7.503906 3.546875 -7.5625 3.984375 -7.5625 C 4.867188 -7.5625 5.523438 -7.363281 5.953125 -6.96875 C 6.378906 -6.570312 6.59375 -5.941406 6.59375 -5.078125 L 6.59375 0 Z M 3.21875 -0.796875 C 3.914062 -0.796875 4.460938 -0.988281 4.859375 -1.375 C 5.265625 -1.757812 5.46875 -2.296875 5.46875 -2.984375 L 5.46875 -3.65625 L 4.34375 -3.609375 C 3.445312 -3.578125 2.800781 -3.4375 2.40625 -3.1875 C 2.007812 -2.945312 1.8125 -2.566406 1.8125 -2.046875 C 1.8125 -1.640625 1.9375 -1.328125 2.1875 -1.109375 C 2.4375 -0.898438 2.78125 -0.796875 3.21875 -0.796875 Z M 3.21875 -0.796875 "/></g></g></g></svg>
